<svg xmlns="http://www.w3.org/2000/svg" viewBox="0 0 64 64" width="64" height="64"><defs><linearGradient id="grad-primary" gradientUnits="userSpaceOnUse" x1="14" y1="14" x2="50" y2="50"><stop offset="0" stop-color="#00D9CB"/><stop offset="1" stop-color="#109EE6"/></linearGradient><linearGradient id="grad-cyber" gradientUnits="userSpaceOnUse" x1="14" y1="14" x2="50" y2="50"><stop offset="0" stop-color="#00D9CB"/><stop offset="1" stop-color="#BD49FF"/></linearGradient><linearGradient id="grad-spectrum" gradientUnits="userSpaceOnUse" x1="14" y1="14" x2="50" y2="50"><stop offset="0" stop-color="#00D9CB"/><stop offset="0.5" stop-color="#109EE6"/><stop offset="1" stop-color="#BD49FF"/></linearGradient><linearGradient id="grad-warning" gradientUnits="userSpaceOnUse" x1="14" y1="14" x2="50" y2="50"><stop offset="0" stop-color="#FDBC4B"/><stop offset="1" stop-color="#FF4757"/></linearGradient><filter id="blur" x="-60%" y="-60%" width="220%" height="220%"><feGaussianBlur stdDeviation="1.6"/></filter></defs><path d="M9 15.5V9H15.5" fill="none" stroke="#00D9CB" stroke-width="1.5" stroke-linecap="round" opacity="0.85"/><path d="M55 15.5V9H48.5" fill="none" stroke="#00D9CB" stroke-width="1.5" stroke-linecap="round" opacity="0.85"/><path d="M9 48.5V55H15.5" fill="none" stroke="#00D9CB" stroke-width="1.5" stroke-linecap="round" opacity="0.85"/><path d="M55 48.5V55H48.5" fill="none" stroke="#00D9CB" stroke-width="1.5" stroke-linecap="round" opacity="0.85"/><path d="M25,23 L22,17 L28,21 Z" fill="url(#grad-primary)" opacity="1"/><path d="M39,23 L42,17 L36,21 Z" fill="url(#grad-primary)" opacity="1"/><path d="M32,21 C26.5,21 23,25 23,30.5 C23,36.5 26.5,40 32,40 C37.5,40 41,36.5 41,30.5 C41,25 37.5,21 32,21 Z" fill="none" stroke="#00D9CB" stroke-width="4.4" stroke-linecap="round" stroke-linejoin="round" opacity="0.32" filter="url(#blur)"/><path d="M32,21 C26.5,21 23,25 23,30.5 C23,36.5 26.5,40 32,40 C37.5,40 41,36.5 41,30.5 C41,25 37.5,21 32,21 Z" fill="none" stroke="url(#grad-primary)" stroke-width="2" stroke-linecap="round" stroke-linejoin="round" opacity="1"/><circle cx="28.5" cy="30" r="1.3" fill="#FFFFFF" opacity="1"/><circle cx="35.5" cy="30" r="1.3" fill="#FFFFFF" opacity="1"/><path d="M41,36 C44,37 45,40 43,44" fill="none" stroke="url(#grad-primary)" stroke-width="2" stroke-linecap="round" stroke-linejoin="round" opacity="1"/></svg>
