<svg xmlns="http://www.w3.org/2000/svg" viewBox="0 0 64 64" width="64" height="64"><defs><linearGradient id="grad-primary" gradientUnits="userSpaceOnUse" x1="14" y1="14" x2="50" y2="50"><stop offset="0" stop-color="#00D9CB"/><stop offset="1" stop-color="#109EE6"/></linearGradient><linearGradient id="grad-cyber" gradientUnits="userSpaceOnUse" x1="14" y1="14" x2="50" y2="50"><stop offset="0" stop-color="#00D9CB"/><stop offset="1" stop-color="#BD49FF"/></linearGradient><linearGradient id="grad-spectrum" gradientUnits="userSpaceOnUse" x1="14" y1="14" x2="50" y2="50"><stop offset="0" stop-color="#00D9CB"/><stop offset="0.5" stop-color="#109EE6"/><stop offset="1" stop-color="#BD49FF"/></linearGradient><linearGradient id="grad-warning" gradientUnits="userSpaceOnUse" x1="14" y1="14" x2="50" y2="50"><stop offset="0" stop-color="#FDBC4B"/><stop offset="1" stop-color="#FF4757"/></linearGradient><linearGradient id="grad-success" gradientUnits="userSpaceOnUse" x1="14" y1="14" x2="50" y2="50"><stop offset="0" stop-color="#71F79F"/><stop offset="1" stop-color="#00D9CB"/></linearGradient><filter id="blur" x="-60%" y="-60%" width="220%" height="220%"><feGaussianBlur stdDeviation="1.6"/></filter></defs><path d="M9 15.5V9H15.5" fill="none" stroke="#00D9CB" stroke-width="1.5" stroke-linecap="round" opacity="0.85"/><path d="M55 15.5V9H48.5" fill="none" stroke="#00D9CB" stroke-width="1.5" stroke-linecap="round" opacity="0.85"/><path d="M9 48.5V55H15.5" fill="none" stroke="#00D9CB" stroke-width="1.5" stroke-linecap="round" opacity="0.85"/><path d="M55 48.5V55H48.5" fill="none" stroke="#00D9CB" stroke-width="1.5" stroke-linecap="round" opacity="0.85"/><path d="M16 18 L48 18 C49.1 18 50 18.9 50 20 L50 44 C50 45.1 49.1 46 48 46 L16 46 C14.9 46 14 45.1 14 44 L14 20 C14 18.9 14.9 18 16 18 Z" fill="none" stroke="#00D9CB" stroke-width="4.6" stroke-linecap="round" stroke-linejoin="round" opacity="0.3" filter="url(#blur)"/><path d="M16 18 L48 18 C49.1 18 50 18.9 50 20 L50 44 C50 45.1 49.1 46 48 46 L16 46 C14.9 46 14 45.1 14 44 L14 20 C14 18.9 14.9 18 16 18 Z" fill="none" stroke="url(#grad-primary)" stroke-width="2.2" stroke-linecap="round" stroke-linejoin="round" opacity="1"/><path d="M14 41 L24 31 L32 39 L38 33 L50 42" fill="none" stroke="#00D9CB" stroke-width="0" stroke-linecap="round" stroke-linejoin="round" opacity="0.3" filter="url(#blur)"/><path d="M14 41 L24 31 L32 39 L38 33 L50 42" fill="none" stroke="url(#grad-cyber)" stroke-width="1.8" stroke-linecap="round" stroke-linejoin="round" opacity="1"/><path d="M23 26 C23 27.7 21.7 29 20 29 C18.3 29 17 27.7 17 26 C17 24.3 18.3 23 20 23 C21.7 23 23 24.3 23 26 Z" fill="none" stroke="#FDBC4B" stroke-width="3.8" stroke-linecap="round" stroke-linejoin="round" opacity="0.3" filter="url(#blur)"/><path d="M23 26 C23 27.7 21.7 29 20 29 C18.3 29 17 27.7 17 26 C17 24.3 18.3 23 20 23 C21.7 23 23 24.3 23 26 Z" fill="none" stroke="url(#grad-warning)" stroke-width="1.4" stroke-linecap="round" stroke-linejoin="round" opacity="1"/></svg>