<svg xmlns="http://www.w3.org/2000/svg" viewBox="0 0 64 64" width="64" height="64"><defs><linearGradient id="grad-primary" gradientUnits="userSpaceOnUse" x1="14" y1="14" x2="50" y2="50"><stop offset="0" stop-color="#00D9CB"/><stop offset="1" stop-color="#109EE6"/></linearGradient><linearGradient id="grad-cyber" gradientUnits="userSpaceOnUse" x1="14" y1="14" x2="50" y2="50"><stop offset="0" stop-color="#00D9CB"/><stop offset="1" stop-color="#BD49FF"/></linearGradient><linearGradient id="grad-spectrum" gradientUnits="userSpaceOnUse" x1="14" y1="14" x2="50" y2="50"><stop offset="0" stop-color="#00D9CB"/><stop offset="0.5" stop-color="#109EE6"/><stop offset="1" stop-color="#BD49FF"/></linearGradient><linearGradient id="grad-warning" gradientUnits="userSpaceOnUse" x1="14" y1="14" x2="50" y2="50"><stop offset="0" stop-color="#FDBC4B"/><stop offset="1" stop-color="#FF4757"/></linearGradient><linearGradient id="grad-success" gradientUnits="userSpaceOnUse" x1="14" y1="14" x2="50" y2="50"><stop offset="0" stop-color="#71F79F"/><stop offset="1" stop-color="#00D9CB"/></linearGradient><filter id="blur" x="-60%" y="-60%" width="220%" height="220%"><feGaussianBlur stdDeviation="1.6"/></filter></defs><path d="M9 15.5V9H15.5" fill="none" stroke="#00D9CB" stroke-width="1.5" stroke-linecap="round" opacity="0.85"/><path d="M55 15.5V9H48.5" fill="none" stroke="#00D9CB" stroke-width="1.5" stroke-linecap="round" opacity="0.85"/><path d="M9 48.5V55H15.5" fill="none" stroke="#00D9CB" stroke-width="1.5" stroke-linecap="round" opacity="0.85"/><path d="M55 48.5V55H48.5" fill="none" stroke="#00D9CB" stroke-width="1.5" stroke-linecap="round" opacity="0.85"/><path d="M24 32 C24 26.5 28.5 22 34 22 C39.5 22 44 26.5 44 32 C44 37.5 39.5 42 34 42 C31.6 42 29.4 41.1 27.7 39.7 L15 39.7 L15 34 L19 34 L19 30 L23 30 L23 34.4" fill="none" stroke="#00D9CB" stroke-width="4.6" stroke-linecap="round" stroke-linejoin="round" opacity="0.3" filter="url(#blur)"/><path d="M24 32 C24 26.5 28.5 22 34 22 C39.5 22 44 26.5 44 32 C44 37.5 39.5 42 34 42 C31.6 42 29.4 41.1 27.7 39.7 L15 39.7 L15 34 L19 34 L19 30 L23 30 L23 34.4" fill="none" stroke="url(#grad-primary)" stroke-width="2.2" stroke-linecap="round" stroke-linejoin="round" opacity="1"/><path d="M34 28 L34 28.4" fill="none" stroke="#00D9CB" stroke-width="5.6" stroke-linecap="round" stroke-linejoin="round" opacity="0.3" filter="url(#blur)"/><path d="M34 28 L34 28.4" fill="none" stroke="url(#grad-cyber)" stroke-width="3.2" stroke-linecap="round" stroke-linejoin="round" opacity="1"/></svg>