<svg xmlns="http://www.w3.org/2000/svg" viewBox="0 0 64 64" width="64" height="64"><defs><linearGradient id="grad-primary" gradientUnits="userSpaceOnUse" x1="14" y1="14" x2="50" y2="50"><stop offset="0" stop-color="#00D9CB"/><stop offset="1" stop-color="#109EE6"/></linearGradient><linearGradient id="grad-cyber" gradientUnits="userSpaceOnUse" x1="14" y1="14" x2="50" y2="50"><stop offset="0" stop-color="#00D9CB"/><stop offset="1" stop-color="#BD49FF"/></linearGradient><linearGradient id="grad-spectrum" gradientUnits="userSpaceOnUse" x1="14" y1="14" x2="50" y2="50"><stop offset="0" stop-color="#00D9CB"/><stop offset="0.5" stop-color="#109EE6"/><stop offset="1" stop-color="#BD49FF"/></linearGradient><linearGradient id="grad-warning" gradientUnits="userSpaceOnUse" x1="14" y1="14" x2="50" y2="50"><stop offset="0" stop-color="#FDBC4B"/><stop offset="1" stop-color="#FF4757"/></linearGradient><linearGradient id="grad-success" gradientUnits="userSpaceOnUse" x1="14" y1="14" x2="50" y2="50"><stop offset="0" stop-color="#71F79F"/><stop offset="1" stop-color="#00D9CB"/></linearGradient><filter id="blur" x="-60%" y="-60%" width="220%" height="220%"><feGaussianBlur stdDeviation="1.6"/></filter></defs><path d="M9 15.5V9H15.5" fill="none" stroke="#00D9CB" stroke-width="1.5" stroke-linecap="round" opacity="0.85"/><path d="M55 15.5V9H48.5" fill="none" stroke="#00D9CB" stroke-width="1.5" stroke-linecap="round" opacity="0.85"/><path d="M9 48.5V55H15.5" fill="none" stroke="#00D9CB" stroke-width="1.5" stroke-linecap="round" opacity="0.85"/><path d="M55 48.5V55H48.5" fill="none" stroke="#00D9CB" stroke-width="1.5" stroke-linecap="round" opacity="0.85"/><path d="M27 37 L37 27" fill="none" stroke="#00D9CB" stroke-width="4.8" stroke-linecap="round" stroke-linejoin="round" opacity="0.3" filter="url(#blur)"/><path d="M27 37 L37 27" fill="none" stroke="url(#grad-cyber)" stroke-width="2.4" stroke-linecap="round" stroke-linejoin="round" opacity="1"/><path d="M30 22 L34 18 C37.5 14.5 43 14.5 46.5 18 C50 21.5 50 27 46.5 30.5 L42.5 34.5" fill="none" stroke="#00D9CB" stroke-width="5.0" stroke-linecap="round" stroke-linejoin="round" opacity="0.3" filter="url(#blur)"/><path d="M30 22 L34 18 C37.5 14.5 43 14.5 46.5 18 C50 21.5 50 27 46.5 30.5 L42.5 34.5" fill="none" stroke="url(#grad-primary)" stroke-width="2.6" stroke-linecap="round" stroke-linejoin="round" opacity="1"/><path d="M34 42 L30 46 C26.5 49.5 21 49.5 17.5 46 C14 42.5 14 37 17.5 33.5 L21.5 29.5" fill="none" stroke="#00D9CB" stroke-width="5.0" stroke-linecap="round" stroke-linejoin="round" opacity="0.3" filter="url(#blur)"/><path d="M34 42 L30 46 C26.5 49.5 21 49.5 17.5 46 C14 42.5 14 37 17.5 33.5 L21.5 29.5" fill="none" stroke="url(#grad-primary)" stroke-width="2.6" stroke-linecap="round" stroke-linejoin="round" opacity="1"/></svg>