<svg xmlns="http://www.w3.org/2000/svg" viewBox="0 0 64 64" width="64" height="64"><defs><linearGradient id="grad-primary" gradientUnits="userSpaceOnUse" x1="14" y1="14" x2="50" y2="50"><stop offset="0" stop-color="#00D9CB"/><stop offset="1" stop-color="#109EE6"/></linearGradient><linearGradient id="grad-cyber" gradientUnits="userSpaceOnUse" x1="14" y1="14" x2="50" y2="50"><stop offset="0" stop-color="#00D9CB"/><stop offset="1" stop-color="#BD49FF"/></linearGradient><linearGradient id="grad-spectrum" gradientUnits="userSpaceOnUse" x1="14" y1="14" x2="50" y2="50"><stop offset="0" stop-color="#00D9CB"/><stop offset="0.5" stop-color="#109EE6"/><stop offset="1" stop-color="#BD49FF"/></linearGradient><linearGradient id="grad-warning" gradientUnits="userSpaceOnUse" x1="14" y1="14" x2="50" y2="50"><stop offset="0" stop-color="#FDBC4B"/><stop offset="1" stop-color="#FF4757"/></linearGradient><filter id="blur" x="-60%" y="-60%" width="220%" height="220%"><feGaussianBlur stdDeviation="1.6"/></filter></defs><path d="M9 15.5V9H15.5" fill="none" stroke="#00D9CB" stroke-width="1.5" stroke-linecap="round" opacity="0.85"/><path d="M55 15.5V9H48.5" fill="none" stroke="#00D9CB" stroke-width="1.5" stroke-linecap="round" opacity="0.85"/><path d="M9 48.5V55H15.5" fill="none" stroke="#00D9CB" stroke-width="1.5" stroke-linecap="round" opacity="0.85"/><path d="M55 48.5V55H48.5" fill="none" stroke="#00D9CB" stroke-width="1.5" stroke-linecap="round" opacity="0.85"/><rect x="19" y="19" width="26" height="9" rx="2.4" fill="none" stroke="#00D9CB" stroke-width="3.8" opacity="0.28" filter="url(#blur)"/><rect x="19" y="19" width="26" height="9" rx="2.4" fill="none" stroke="url(#grad-primary)" stroke-width="1.8"/><circle cx="24" cy="23.5" r="2.9" fill="#71F79F" opacity="0.32" filter="url(#blur)"/><circle cx="24" cy="23.5" r="1.3" fill="#71F79F" opacity="1"/><rect x="19" y="31" width="26" height="9" rx="2.4" fill="none" stroke="url(#grad-primary)" stroke-width="1.8"/><circle cx="24" cy="35.5" r="1.3" fill="#00D9CB" opacity="1"/><rect x="19" y="43" width="26" height="9" rx="2.4" fill="none" stroke="url(#grad-primary)" stroke-width="1.8"/><circle cx="24" cy="47.5" r="1.3" fill="#00D9CB" opacity="1"/></svg>
