<svg xmlns="http://www.w3.org/2000/svg" viewBox="0 0 64 64" width="64" height="64"><defs><linearGradient id="grad-primary" gradientUnits="userSpaceOnUse" x1="14" y1="14" x2="50" y2="50"><stop offset="0" stop-color="#00D9CB"/><stop offset="1" stop-color="#109EE6"/></linearGradient><linearGradient id="grad-cyber" gradientUnits="userSpaceOnUse" x1="14" y1="14" x2="50" y2="50"><stop offset="0" stop-color="#00D9CB"/><stop offset="1" stop-color="#BD49FF"/></linearGradient><linearGradient id="grad-spectrum" gradientUnits="userSpaceOnUse" x1="14" y1="14" x2="50" y2="50"><stop offset="0" stop-color="#00D9CB"/><stop offset="0.5" stop-color="#109EE6"/><stop offset="1" stop-color="#BD49FF"/></linearGradient><linearGradient id="grad-warning" gradientUnits="userSpaceOnUse" x1="14" y1="14" x2="50" y2="50"><stop offset="0" stop-color="#FDBC4B"/><stop offset="1" stop-color="#FF4757"/></linearGradient><linearGradient id="grad-success" gradientUnits="userSpaceOnUse" x1="14" y1="14" x2="50" y2="50"><stop offset="0" stop-color="#71F79F"/><stop offset="1" stop-color="#00D9CB"/></linearGradient><filter id="blur" x="-60%" y="-60%" width="220%" height="220%"><feGaussianBlur stdDeviation="1.6"/></filter></defs><path d="M9 15.5V9H15.5" fill="none" stroke="#00D9CB" stroke-width="1.5" stroke-linecap="round" opacity="0.85"/><path d="M55 15.5V9H48.5" fill="none" stroke="#00D9CB" stroke-width="1.5" stroke-linecap="round" opacity="0.85"/><path d="M9 48.5V55H15.5" fill="none" stroke="#00D9CB" stroke-width="1.5" stroke-linecap="round" opacity="0.85"/><path d="M55 48.5V55H48.5" fill="none" stroke="#00D9CB" stroke-width="1.5" stroke-linecap="round" opacity="0.85"/><path d="M32 15 L35 26 L46 29 L35 32 L32 43 L29 32 L18 29 L29 26 Z" fill="#00D9CB" opacity="0.32" filter="url(#blur)"/><path d="M32 15 L35 26 L46 29 L35 32 L32 43 L29 32 L18 29 L29 26 Z" fill="url(#grad-spectrum)" opacity="1"/><path d="M46 15 L47.4 19.6 L52 21 L47.4 22.4 L46 27 L44.6 22.4 L40 21 L44.6 19.6 Z" fill="#00D9CB" opacity="0.32" filter="url(#blur)"/><path d="M46 15 L47.4 19.6 L52 21 L47.4 22.4 L46 27 L44.6 22.4 L40 21 L44.6 19.6 Z" fill="url(#grad-primary)" opacity="1"/></svg>