<svg xmlns="http://www.w3.org/2000/svg" viewBox="0 0 64 64" width="64" height="64"><defs><linearGradient id="grad-primary" gradientUnits="userSpaceOnUse" x1="14" y1="14" x2="50" y2="50"><stop offset="0" stop-color="#00D9CB"/><stop offset="1" stop-color="#109EE6"/></linearGradient><linearGradient id="grad-cyber" gradientUnits="userSpaceOnUse" x1="14" y1="14" x2="50" y2="50"><stop offset="0" stop-color="#00D9CB"/><stop offset="1" stop-color="#BD49FF"/></linearGradient><linearGradient id="grad-spectrum" gradientUnits="userSpaceOnUse" x1="14" y1="14" x2="50" y2="50"><stop offset="0" stop-color="#00D9CB"/><stop offset="0.5" stop-color="#109EE6"/><stop offset="1" stop-color="#BD49FF"/></linearGradient><linearGradient id="grad-warning" gradientUnits="userSpaceOnUse" x1="14" y1="14" x2="50" y2="50"><stop offset="0" stop-color="#FDBC4B"/><stop offset="1" stop-color="#FF4757"/></linearGradient><linearGradient id="grad-success" gradientUnits="userSpaceOnUse" x1="14" y1="14" x2="50" y2="50"><stop offset="0" stop-color="#71F79F"/><stop offset="1" stop-color="#00D9CB"/></linearGradient><filter id="blur" x="-60%" y="-60%" width="220%" height="220%"><feGaussianBlur stdDeviation="1.6"/></filter></defs><path d="M9 15.5V9H15.5" fill="none" stroke="#00D9CB" stroke-width="1.5" stroke-linecap="round" opacity="0.85"/><path d="M55 15.5V9H48.5" fill="none" stroke="#00D9CB" stroke-width="1.5" stroke-linecap="round" opacity="0.85"/><path d="M9 48.5V55H15.5" fill="none" stroke="#00D9CB" stroke-width="1.5" stroke-linecap="round" opacity="0.85"/><path d="M55 48.5V55H48.5" fill="none" stroke="#00D9CB" stroke-width="1.5" stroke-linecap="round" opacity="0.85"/><path d="M18 32 C18 24.3 24.3 18 32 18 C37.6 18 42.4 21.3 44.6 26" fill="none" stroke="#00D9CB" stroke-width="4.8" stroke-linecap="round" stroke-linejoin="round" opacity="0.3" filter="url(#blur)"/><path d="M18 32 C18 24.3 24.3 18 32 18 C37.6 18 42.4 21.3 44.6 26" fill="none" stroke="url(#grad-primary)" stroke-width="2.4" stroke-linecap="round" stroke-linejoin="round" opacity="1"/><path d="M46 32 C46 39.7 39.7 46 32 46 C26.4 46 21.6 42.7 19.4 38" fill="none" stroke="#00D9CB" stroke-width="4.8" stroke-linecap="round" stroke-linejoin="round" opacity="0.3" filter="url(#blur)"/><path d="M46 32 C46 39.7 39.7 46 32 46 C26.4 46 21.6 42.7 19.4 38" fill="none" stroke="url(#grad-cyber)" stroke-width="2.4" stroke-linecap="round" stroke-linejoin="round" opacity="1"/><path d="M38 20 L45 26 L47 18 M26 44 L19 38 L17 46" fill="none" stroke="#00D9CB" stroke-width="4.4" stroke-linecap="round" stroke-linejoin="round" opacity="0.3" filter="url(#blur)"/><path d="M38 20 L45 26 L47 18 M26 44 L19 38 L17 46" fill="none" stroke="url(#grad-spectrum)" stroke-width="2" stroke-linecap="round" stroke-linejoin="round" opacity="1"/></svg>