<svg xmlns="http://www.w3.org/2000/svg" viewBox="0 0 64 64" width="64" height="64"><defs><linearGradient id="grad-primary" gradientUnits="userSpaceOnUse" x1="14" y1="14" x2="50" y2="50"><stop offset="0" stop-color="#00D9CB"/><stop offset="1" stop-color="#109EE6"/></linearGradient><linearGradient id="grad-cyber" gradientUnits="userSpaceOnUse" x1="14" y1="14" x2="50" y2="50"><stop offset="0" stop-color="#00D9CB"/><stop offset="1" stop-color="#BD49FF"/></linearGradient><linearGradient id="grad-spectrum" gradientUnits="userSpaceOnUse" x1="14" y1="14" x2="50" y2="50"><stop offset="0" stop-color="#00D9CB"/><stop offset="0.5" stop-color="#109EE6"/><stop offset="1" stop-color="#BD49FF"/></linearGradient><linearGradient id="grad-warning" gradientUnits="userSpaceOnUse" x1="14" y1="14" x2="50" y2="50"><stop offset="0" stop-color="#FDBC4B"/><stop offset="1" stop-color="#FF4757"/></linearGradient><linearGradient id="grad-success" gradientUnits="userSpaceOnUse" x1="14" y1="14" x2="50" y2="50"><stop offset="0" stop-color="#71F79F"/><stop offset="1" stop-color="#00D9CB"/></linearGradient><filter id="blur" x="-60%" y="-60%" width="220%" height="220%"><feGaussianBlur stdDeviation="1.6"/></filter></defs><path d="M9 15.5V9H15.5" fill="none" stroke="#00D9CB" stroke-width="1.5" stroke-linecap="round" opacity="0.85"/><path d="M55 15.5V9H48.5" fill="none" stroke="#00D9CB" stroke-width="1.5" stroke-linecap="round" opacity="0.85"/><path d="M9 48.5V55H15.5" fill="none" stroke="#00D9CB" stroke-width="1.5" stroke-linecap="round" opacity="0.85"/><path d="M55 48.5V55H48.5" fill="none" stroke="#00D9CB" stroke-width="1.5" stroke-linecap="round" opacity="0.85"/><path d="M14 20 L50 20 C51.1 20 52 20.9 52 22 L52 44 C52 45.1 51.1 46 50 46 L14 46 C12.9 46 12 45.1 12 44 L12 22 C12 20.9 12.9 20 14 20 Z" fill="none" stroke="#00D9CB" stroke-width="4.6" stroke-linecap="round" stroke-linejoin="round" opacity="0.3" filter="url(#blur)"/><path d="M14 20 L50 20 C51.1 20 52 20.9 52 22 L52 44 C52 45.1 51.1 46 50 46 L14 46 C12.9 46 12 45.1 12 44 L12 22 C12 20.9 12.9 20 14 20 Z" fill="none" stroke="url(#grad-primary)" stroke-width="2.2" stroke-linecap="round" stroke-linejoin="round" opacity="1"/><path d="M12 26 L52 26" fill="none" stroke="#00D9CB" stroke-width="0" stroke-linecap="round" stroke-linejoin="round" opacity="0.3" filter="url(#blur)"/><path d="M12 26 L52 26" fill="none" stroke="url(#grad-cyber)" stroke-width="1.6" stroke-linecap="round" stroke-linejoin="round" opacity="1"/><path d="M16.5 23 L16.5 23.2 M20.5 23 L20.5 23.2 M24.5 23 L24.5 23.2" fill="none" stroke="#FDBC4B" stroke-width="4.0" stroke-linecap="round" stroke-linejoin="round" opacity="0.3" filter="url(#blur)"/><path d="M16.5 23 L16.5 23.2 M20.5 23 L20.5 23.2 M24.5 23 L24.5 23.2" fill="none" stroke="url(#grad-warning)" stroke-width="1.6" stroke-linecap="round" stroke-linejoin="round" opacity="1"/></svg>